<svg xmlns="http://www.w3.org/2000/svg" x="0px" y="0px"
width="50" height="50"
viewBox="0 0 172 172"
style=" fill:#000000;"><g fill="none" fill-rule="nonzero" stroke="none" stroke-width="1" stroke-linecap="butt" stroke-linejoin="miter" stroke-miterlimit="10" stroke-dasharray="" stroke-dashoffset="0" font-family="none" font-weight="none" font-size="none" text-anchor="none" style="mix-blend-mode: normal"><path d="M0,172v-172h172v172z" fill="none"></path><g fill="#ffffff"><path d="M24.08,30.96c-9.48408,0 -17.2,7.71592 -17.2,17.2v75.68c0,9.48408 7.71592,17.2 17.2,17.2h123.84c9.48408,0 17.2,-7.71592 17.2,-17.2v-75.68c0,-9.48408 -7.71592,-17.2 -17.2,-17.2zM13.76,55.04h144.48v17.2h-144.48zM111.8,92.88c3.98352,0 7.57832,1.54789 10.32,4.01781c2.74168,-2.46992 6.33648,-4.01781 10.32,-4.01781c8.5484,0 15.48,6.9316 15.48,15.48c0,8.5484 -6.9316,15.48 -15.48,15.48c-3.98352,0 -7.57832,-1.54789 -10.32,-4.01781c-2.74168,2.46992 -6.33648,4.01781 -10.32,4.01781c-8.5484,0 -15.48,-6.9316 -15.48,-15.48c0,-8.5484 6.9316,-15.48 15.48,-15.48zM122.12,119.82219c1.36853,0 2.681,-1.20762 3.64869,-3.3572c0.96769,-2.14958 1.51132,-5.06503 1.51131,-8.10498c0.00001,-3.03995 -0.54362,-5.9554 -1.51131,-8.10498c-0.96769,-2.14958 -2.28016,-3.3572 -3.64869,-3.3572c-1.36853,0 -2.681,1.20762 -3.64869,3.3572c-0.96769,2.14958 -1.51132,5.06503 -1.51131,8.10498c-0.00001,3.03995 0.54362,5.9554 1.51131,8.10498c0.96769,2.14958 2.28016,3.3572 3.64869,3.3572z"></path></g></g></svg>